<svg width="40" height="40" viewBox="0 0 40 40" fill="none" xmlns="http://www.w3.org/2000/svg">
<g clip-path="url(#clip0)">
<path d="M16.5716 19.4005C16.9812 19.2082 17.2238 18.6732 17.2238 18.0125C17.2238 16.9005 16.4712 16.5159 15.4596 16.5159C14.0466 16.5159 13.6285 17.3771 13.6285 17.9707C13.6285 18.322 13.7036 18.4391 14.1885 18.4391C14.5901 18.4391 14.707 18.2716 14.707 18.0211C14.707 17.6866 14.9078 17.4608 15.4513 17.4608C15.9027 17.4608 16.1871 17.6448 16.1871 18.1965C16.1871 18.9155 15.8358 19.0159 15.4178 19.0159C15.1751 19.0159 15.0915 19.2332 15.0915 19.4423C15.0915 19.6595 15.1751 19.8686 15.4178 19.8686C15.9527 19.8686 16.3376 20.0444 16.3376 20.663V20.822C16.3376 21.4573 16.0699 21.725 15.4428 21.725C14.9075 21.725 14.573 21.4906 14.573 21.1146C14.573 20.847 14.4561 20.7298 14.013 20.7298C13.6367 20.7298 13.4945 20.822 13.4945 21.1564C13.4945 21.8336 14.0463 22.678 15.4178 22.678C16.5213 22.678 17.4243 22.1681 17.4243 20.822V20.663C17.4243 19.969 17.0648 19.5927 16.5716 19.4005Z" fill="#0085FF"/>
<path d="M20.0582 17.469C20.5181 17.469 20.9112 17.6948 20.9112 18.0879C20.9112 18.4138 21.1788 18.4974 21.4797 18.4974C21.8224 18.4974 21.9897 18.3888 21.9897 18.0461C21.9897 17.3436 21.4211 16.5159 20.0832 16.5159C18.9461 16.5159 18.0681 17.0344 18.0681 18.4306V20.7637C18.0681 22.1598 18.9294 22.6783 20.0332 22.6783C21.137 22.6783 21.9897 22.1598 21.9897 20.7637V20.6465C21.9897 19.3254 21.2038 18.9158 20.259 18.9158C19.8241 18.9158 19.4228 19.0159 19.1469 19.3422V18.4306C19.1469 17.7702 19.4897 17.469 20.0582 17.469ZM20.0249 19.7685C20.5767 19.7685 20.9029 20.0276 20.9029 20.7216V20.8305C20.9029 21.4909 20.5767 21.7921 20.0332 21.7921C19.4814 21.7921 19.1469 21.4909 19.1469 20.8305V20.6465C19.1469 20.0108 19.4982 19.7685 20.0249 19.7685Z" fill="#0085FF"/>
<path d="M26.5804 18.4306C26.5804 17.0344 25.7192 16.5159 24.6154 16.5159C23.5115 16.5159 22.6589 17.0344 22.6589 18.4306V20.7634C22.6589 22.1598 23.5115 22.6783 24.6154 22.6783C25.7192 22.6783 26.5804 22.1598 26.5804 20.7634V18.4306ZM25.4933 20.7634C25.4933 21.4241 25.1589 21.725 24.6154 21.725C24.0636 21.725 23.7456 21.4241 23.7456 20.7634V18.4306C23.7456 17.7702 24.0636 17.469 24.6154 17.469C25.1589 17.469 25.4933 17.7702 25.4933 18.4306V20.7634Z" fill="#0085FF"/>
<path d="M40 19.966C39.9918 15.154 38.2513 10.5083 35.0967 6.88098C34.8843 6.63684 34.5142 6.61121 34.27 6.82361C34.0259 7.03601 34.0002 7.40619 34.2126 7.65033C36.2479 9.99042 37.6575 12.7809 38.3459 15.7634C37.3312 14.5363 35.8661 13.4163 33.9948 12.4596C32.5916 11.7424 31.0175 11.1455 29.3201 10.6798C28.8544 8.98242 28.2578 7.40833 27.5403 6.00513C26.5836 4.13379 25.4639 2.66864 24.2368 1.65424C27.2061 2.33966 29.9857 3.74011 32.3187 5.76038C32.5632 5.97217 32.9333 5.94562 33.1451 5.70117C33.3569 5.45642 33.3304 5.08624 33.0856 4.87445C29.4553 1.73114 24.808 -0.00012207 20 -0.00012207C14.6579 -0.00012207 9.63531 2.08026 5.85785 5.85773C2.08038 9.63519 0 14.6578 0 19.9999V20.0338C0.00823977 24.8436 1.74744 29.4881 4.8999 33.1145C5.01556 33.2479 5.17853 33.3159 5.3421 33.3159C5.47852 33.3159 5.61554 33.2689 5.72632 33.1725C5.97076 32.9601 5.9964 32.5899 5.784 32.3458C3.75092 30.0066 2.34222 27.2173 1.65436 24.2363C2.66876 25.4634 4.13391 26.5834 6.00555 27.5402C7.40845 28.2573 8.98254 28.8542 10.6799 29.3199C11.1456 31.0173 11.7426 32.5914 12.4597 33.9946C13.4164 35.866 14.5364 37.3311 15.7635 38.3455C12.7826 37.6577 9.99329 36.249 7.65411 34.2156C7.40997 34.0035 7.03979 34.0291 6.8277 34.2736C6.6153 34.5177 6.64124 34.8879 6.88538 35.1C10.5121 38.2524 15.1562 39.9916 19.9661 39.9999H20C25.3421 39.9999 30.3647 37.9195 34.1422 34.142C37.9196 30.3646 40 25.342 40 19.9999C40 19.9886 40 19.9773 40 19.966ZM6.6864 6.68628C9.22699 4.146 12.3654 2.42084 15.7846 1.64264C14.5099 2.69 13.3527 4.21649 12.381 6.16046L11.7328 4.22076C11.6299 3.91376 11.2982 3.74805 10.9912 3.85059C10.6842 3.95312 10.5188 4.28516 10.6213 4.59216L11.741 7.94269C11.8231 8.18805 12.0517 8.34308 12.2968 8.34308C12.3584 8.34308 12.421 8.33331 12.4826 8.31287L15.8331 7.19287C16.1401 7.09033 16.3058 6.7583 16.2033 6.45129C16.1008 6.14459 15.769 5.97888 15.4617 6.08142L13.3829 6.77631C15.1447 3.19629 17.515 1.17175 20 1.17175C22.42 1.17175 24.7275 3.07788 26.4969 6.53888C27.088 7.69519 27.5937 8.97571 28.0072 10.3511C25.5161 9.78564 22.8012 9.4881 20 9.4881C14.7232 9.4881 9.75342 10.5434 6.00555 12.4596C4.12842 13.4194 2.65991 14.543 1.6452 15.7744C2.42432 12.3592 4.14856 9.22443 6.6864 6.68628ZM10.3513 28.0071C8.97614 27.5936 7.69531 27.0879 6.539 26.4968C3.078 24.7274 1.17188 22.4199 1.17188 19.9999C1.17188 17.5798 3.078 15.2724 6.539 13.503C7.69592 12.9116 8.97736 12.4056 10.3537 11.9918C9.77936 14.5131 9.48822 17.2017 9.48822 19.9999C9.48822 22.8011 9.78577 25.5159 10.3513 28.0071ZM20 38.828C17.58 38.828 15.2725 36.9219 13.5031 33.4609C12.912 32.3046 12.4063 31.024 11.9928 29.6486C14.4839 30.2141 17.1988 30.5117 20 30.5117C21.384 30.5117 22.7579 30.4384 24.1003 30.2932L22.8201 32.0836C22.6318 32.3467 22.6926 32.7129 22.9559 32.9012C23.0591 32.9747 23.1781 33.0104 23.2962 33.0104C23.4787 33.0104 23.6588 32.9253 23.7732 32.7654L25.8279 29.8915C25.8963 29.796 25.9338 29.6831 25.9372 29.5674C25.9384 29.5317 25.9366 29.4957 25.9314 29.4591C25.903 29.265 25.7828 29.1072 25.621 29.0233L22.8183 27.0192C22.5552 26.8312 22.1893 26.8917 22.001 27.155C21.8127 27.4181 21.8735 27.7843 22.1368 27.9726L23.7814 29.1484C22.5421 29.2757 21.2756 29.3398 19.9997 29.3398C17.0505 29.3398 14.2068 29.0013 11.6388 28.3608C10.9982 25.793 10.6598 22.9491 10.6598 19.9999C10.6598 17.0601 10.9906 14.2488 11.6428 11.6381C14.2099 10.9981 17.0523 10.66 20 10.66C22.9492 10.66 25.7932 10.9984 28.3609 11.639C29.0015 14.2067 29.3399 17.0507 29.3399 19.9999C29.3399 23.0526 28.9774 25.9923 28.2925 28.6299C28.277 28.6699 28.266 28.712 28.2596 28.7551C27.8055 30.4714 27.2144 32.0577 26.4969 33.4609C24.7275 36.9219 22.42 38.828 20 38.828ZM33.3136 33.3135C30.7755 35.8513 27.6407 37.5756 24.2255 38.355C25.4568 37.34 26.5805 35.8718 27.5403 33.9946C28.2581 32.5908 28.855 31.0158 29.3207 29.3172C33.4418 28.1874 36.5814 26.3774 38.3575 24.2134C37.5797 27.6332 35.8545 30.7726 33.3136 33.3135ZM36.1096 24.7951C34.4998 26.1138 32.2806 27.2139 29.6494 28.0034C30.2145 25.5132 30.5118 22.7996 30.5118 19.9999C30.5118 17.1987 30.2142 14.4838 29.6487 11.9924C31.0239 12.4062 32.3047 12.9116 33.461 13.503C36.922 15.2724 38.8281 17.5798 38.8281 19.9999C38.8281 21.6802 37.8882 23.3385 36.1096 24.7951Z" fill="#0085FF"/>
</g>
<defs>
<clipPath id="clip0">
<rect width="40" height="40" fill="white" transform="translate(0 -0.00012207)"/>
</clipPath>
</defs>
</svg>
