<svg width="70" height="70" viewBox="0 0 70 70" fill="none" xmlns="http://www.w3.org/2000/svg">
<path d="M28.2561 35.0148L54.4429 8.82683C55.1639 8.10748 55.5606 7.14569 55.5606 6.12016C55.5606 5.09406 55.1639 4.13285 54.4429 3.41236L52.1483 1.11886C51.4283 0.397236 50.466 0 49.4404 0C48.4149 0 47.4537 0.397236 46.7332 1.11886L15.5536 32.2979C14.8303 33.0206 14.4342 33.9864 14.437 35.0131C14.4342 36.0443 14.8297 37.0089 15.5536 37.7323L46.7042 68.8811C47.4247 69.6028 48.3859 70 49.412 70C50.4375 70 51.3987 69.6028 52.1198 68.8811L54.4139 66.5876C55.9066 65.0949 55.9066 62.6648 54.4139 61.1726L28.2561 35.0148Z" fill="#A9A9B9"/>
</svg>
