<svg width="24" height="24" viewBox="0 0 24 24" fill="none" xmlns="http://www.w3.org/2000/svg">
<path d="M12.7278 3.30214L14.2031 4.109L15.0099 5.5843C15.0551 5.66693 15.1418 5.71832 15.236 5.71832C15.3302 5.71832 15.4169 5.66693 15.4621 5.5843L16.2689 4.109L17.7442 3.30214C17.8269 3.25694 17.8782 3.17028 17.8782 3.07608C17.8782 2.98188 17.8269 2.89522 17.7442 2.85002L16.2689 2.04316L15.4621 0.567854C15.4169 0.485224 15.3302 0.433838 15.236 0.433838C15.1418 0.433838 15.0551 0.485224 15.0099 0.567854L14.2031 2.04316L12.7278 2.85006C12.6451 2.89527 12.5938 2.98193 12.5938 3.07613C12.5938 3.17033 12.6452 3.25694 12.7278 3.30214Z" fill="#0085FF"/>
<path d="M11.6431 6.81495C12.0311 6.81495 12.3457 6.50037 12.3457 6.11231C12.3457 5.72425 12.0311 5.40967 11.6431 5.40967C11.255 5.40967 10.9404 5.72425 10.9404 6.11231C10.9404 6.50037 11.255 6.81495 11.6431 6.81495Z" fill="#0085FF"/>
<path d="M18.4011 14.3369C18.1267 14.6113 18.1267 15.0562 18.4011 15.3306C18.6755 15.605 19.1204 15.605 19.3948 15.3306C19.6692 15.0562 19.6692 14.6113 19.3948 14.3369C19.1204 14.0625 18.6755 14.0625 18.4011 14.3369Z" fill="#0085FF"/>
<path d="M18.6528 7.12281C19.0409 7.12281 19.3555 6.80823 19.3555 6.42017C19.3555 6.03211 19.0409 5.71753 18.6528 5.71753C18.2648 5.71753 17.9502 6.03211 17.9502 6.42017C17.9502 6.80823 18.2648 7.12281 18.6528 7.12281Z" fill="#0085FF"/>
<path d="M7.47526 4.31799C7.55307 4.34567 7.63251 4.35879 7.7106 4.35879C7.99957 4.35879 8.27032 4.17919 8.37267 3.89135L9.11119 1.81421C9.24118 1.44861 9.05016 1.04679 8.68455 0.916804C8.3188 0.786723 7.91708 0.977793 7.78714 1.34344L7.04862 3.42058C6.91859 3.78618 7.10961 4.188 7.47526 4.31799Z" fill="#0085FF"/>
<path d="M23.4689 7.02462C23.0927 6.92986 22.7107 7.15794 22.6158 7.53417L22.1295 9.46357C21.7442 9.22996 21.3737 8.97074 21.023 8.68936C20.7441 8.46559 20.3665 8.41322 20.0375 8.55281C19.7091 8.69217 19.4846 8.99945 19.4518 9.35485C19.4011 9.90272 19.3613 10.457 19.3329 11.0098C18.9581 10.8182 18.5858 10.613 18.2216 10.4123C17.9529 10.2642 17.6751 10.111 17.3982 9.96431C17.0972 9.80482 16.7426 9.81381 16.4497 9.98848C16.1566 10.1633 15.9799 10.4712 15.9771 10.8122C15.9718 11.4458 15.9712 12.0889 15.9754 12.7235C15.9778 13.11 16.2919 13.4216 16.6779 13.4216H16.6825C17.0706 13.4191 17.3832 13.1025 17.3806 12.7145C17.3782 12.3288 17.3774 11.94 17.3784 11.5521C17.4337 11.5825 17.4887 11.6129 17.5434 11.643C18.1201 11.9609 18.7164 12.2896 19.3358 12.5737C19.6315 12.7093 19.9732 12.6884 20.2499 12.5176C20.5257 12.3474 20.6971 12.0525 20.7084 11.7286C20.7254 11.2429 20.7517 10.7535 20.7868 10.2661C21.1636 10.528 21.5561 10.7681 21.96 10.9836C22.1941 11.1084 22.4572 11.1303 22.7009 11.0452C22.9724 10.9504 23.1946 10.7307 23.3264 10.4265C23.3416 10.3916 23.3539 10.3556 23.3631 10.3187L23.9785 7.87767C24.0733 7.50143 23.8452 7.11948 23.4689 7.02462Z" fill="#0085FF"/>
<path d="M21.8684 4.24462C23.0384 4.24462 23.9868 3.29618 23.9868 2.12621C23.9868 0.956253 23.0384 0.0078125 21.8684 0.0078125C20.6984 0.0078125 19.75 0.956253 19.75 2.12621C19.75 3.29618 20.6984 4.24462 21.8684 4.24462Z" fill="#0085FF"/>
<path d="M13.116 9.49517C13.2007 9.49517 13.2868 9.47976 13.3705 9.44725L15.4252 8.6485C15.7869 8.50788 15.9661 8.10072 15.8255 7.739C15.6849 7.37733 15.2777 7.19811 14.916 7.33869L12.8613 8.13745C12.4996 8.27807 12.3204 8.68522 12.461 9.04694C12.5691 9.325 12.8347 9.49517 13.116 9.49517Z" fill="#0085FF"/>
<path d="M2.20508 18.3889L7.65674 20.8984L11.1502 19.3694L3.45746 15.5376L2.20508 18.3889Z" fill="#0085FF"/>
<path d="M4.03809 14.2149L12.4606 18.4102L5.32818 11.2778L4.03809 14.2149Z" fill="#0085FF"/>
<path d="M7.62529 7.12095C7.32053 6.8162 6.92111 6.66382 6.52168 6.66382C6.12225 6.66382 5.72283 6.8162 5.41807 7.12095C4.80856 7.73047 4.80856 8.71866 5.41807 9.32817L14.8092 18.7193C15.114 19.0241 15.5134 19.1765 15.9128 19.1765C16.3123 19.1765 16.7117 19.0241 17.0164 18.7193C17.626 18.1098 17.626 17.1216 17.0164 16.5121L7.62529 7.12095Z" fill="#0085FF"/>
<path d="M0.0425465 23.3108C-0.135314 23.7157 0.276665 24.1283 0.681852 23.951L5.88769 21.6726L1.62413 19.71L0.0425465 23.3108Z" fill="#0085FF"/>
</svg>
