<svg width="32" height="24" fill="none" xmlns="http://www.w3.org/2000/svg">
<g clip-path="url(#clip0)">
<path d="M23.8682 11.5907C23.6539 11.2912 18.5469 4.26546 12.0471 4.26546C5.54688 4.26546 0.346055 11.2912 0.131836 11.5907C-0.0439453 11.8354 -0.0439453 12.1649 0.131836 12.4091C0.346055 12.7087 5.54688 19.7343 12.0471 19.7343C18.5469 19.7343 23.6539 12.7087 23.8682 12.4091C24.0439 12.1649 24.0439 11.8353 23.8682 11.5907ZM12.0471 16.9218C9.33349 16.9218 7.03146 14.7135 7.03146 11.9999C7.03146 9.28624 9.33349 7.07796 12.0471 7.07796C14.7608 7.07796 16.9691 9.28624 16.9691 11.9999C16.9691 14.7135 14.7608 16.9218 12.0471 16.9218Z" fill="#0085FF"/>
<path d="M12.0469 9.89053C10.8834 9.89053 9.84375 10.8369 9.84375 11.9999C9.84375 13.1633 10.8834 14.1093 12.0469 14.1093C13.2099 14.1093 14.1563 13.1633 14.1563 11.9999C14.1563 10.8369 13.2099 9.89053 12.0469 9.89053Z" fill="#0085FF"/>
</g>
<defs>
<clipPath id="clip0">
<rect width="24" height="24" rx="5" fill="white"/>
</clipPath>
</defs>
</svg>
