<svg width="24" height="24" viewBox="0 0 24 24" fill="none" xmlns="http://www.w3.org/2000/svg">
<path d="M13.6145 3.60469C13.5462 3.53813 13.4549 3.50052 13.3595 3.49969H7.49951C7.2343 3.49969 6.97994 3.60504 6.79241 3.79258C6.60487 3.98012 6.49951 4.23447 6.49951 4.49969V17.9997C6.49951 18.2649 6.60487 18.5193 6.79241 18.7068C6.97994 18.8943 7.2343 18.9997 7.49951 18.9997H17.9995C18.2647 18.9997 18.5191 18.8943 18.7066 18.7068C18.8942 18.5193 18.9995 18.2649 18.9995 17.9997V9.14969C18.9987 9.05433 18.9611 8.96298 18.8945 8.89469L13.6145 3.60469ZM14.4995 8.99969C14.2343 8.99969 13.9799 8.89433 13.7924 8.70679C13.6049 8.51926 13.4995 8.2649 13.4995 7.99969V4.99969L17.4995 8.99969H14.4995Z" fill="#0085FF"/>
<path d="M5.50049 18V4.49999H5.00049C4.73527 4.49999 4.48092 4.60535 4.29338 4.79289C4.10585 4.98042 4.00049 5.23478 4.00049 5.49999V20.5C4.00049 20.7652 4.10585 21.0196 4.29338 21.2071C4.48092 21.3946 4.73527 21.5 5.00049 21.5H17.0005C17.2657 21.5 17.5201 21.3946 17.7076 21.2071C17.8951 21.0196 18.0005 20.7652 18.0005 20.5V20H7.50049C6.97006 20 6.46135 19.7893 6.08627 19.4142C5.7112 19.0391 5.50049 18.5304 5.50049 18Z" fill="#0085FF"/>
</svg>
