<svg width="60" height="60" viewBox="0 0 60 60" fill="none" xmlns="http://www.w3.org/2000/svg">
<g clip-path="url(#clip0)">
<path d="M58.3365 3.50217C57.8594 3.30382 57.3103 3.41352 56.9461 3.77898L51.6421 9.08295C45.951 3.22537 38.3478 0 30.2311 0C28.5141 0 26.7825 0.149884 25.0853 0.444548C13.5328 2.45235 4.17241 11.101 1.23979 22.4787C1.14093 22.8608 1.22512 23.2664 1.46621 23.5783C1.70794 23.8902 2.07978 24.0726 2.47458 24.0726H10.5989C11.134 24.0726 11.613 23.7384 11.7967 23.2351C14.1751 16.734 20.083 11.7732 26.8476 10.5977C27.9618 10.4045 29.0958 10.3069 30.2203 10.3069C35.5957 10.3069 40.6158 12.4588 44.3591 16.366L38.9728 21.7516C38.6087 22.1164 38.4996 22.665 38.696 23.1414C38.8944 23.6185 39.3587 23.9291 39.8747 23.9291H57.8486C58.5527 23.9291 59.1242 23.3576 59.1242 22.6535V4.6802C59.1242 4.16485 58.8123 3.69989 58.3365 3.50217Z" fill="#0085FF"/>
<path d="M57.5243 35.9262H49.4006C48.8655 35.9262 48.3865 36.2598 48.2028 36.763C45.8245 43.2641 39.9165 48.2256 33.152 49.4004C32.0371 49.5937 30.9037 49.6913 29.7793 49.6913C24.4039 49.6913 19.3831 47.5393 15.6405 43.6321L21.0261 38.2465C21.3909 37.8817 21.5 37.3332 21.3029 36.8568C21.1052 36.3797 20.6402 36.0691 20.1242 36.0691H2.15158C1.44745 36.0691 0.875977 36.6405 0.875977 37.3447V55.3186C0.875977 55.8346 1.18659 56.2995 1.66366 56.4973C2.13946 56.695 2.68861 56.5853 3.05343 56.2198L8.3574 50.9165C14.0479 56.7734 21.6511 59.9994 29.7678 59.9994C31.4854 59.9994 33.217 59.8496 34.9142 59.5549C46.4661 57.5484 55.8271 48.8985 58.7598 37.5207C58.8586 37.138 58.7744 36.7337 58.534 36.4205C58.2916 36.1093 57.9191 35.9262 57.5243 35.9262Z" fill="#0085FF"/>
</g>
<defs>
<clipPath id="clip0">
<rect width="60" height="59.9994" fill="white"/>
</clipPath>
</defs>
</svg>
