<svg width="78" height="78" viewBox="0 0 78 78" fill="none" xmlns="http://www.w3.org/2000/svg">
<g clip-path="url(#clip0)">
<path d="M56.7209 78.0002C56.1749 78.0002 55.6159 77.932 55.0634 77.7857L4.80862 64.3275C1.36362 63.3785 -0.690385 59.81 0.213115 56.365L6.55386 32.731C6.78787 31.8632 7.67837 31.3595 8.54286 31.5805C9.41061 31.8112 9.92412 32.705 9.69337 33.5695L3.35587 57.197C2.90412 58.9195 3.93762 60.7135 5.66337 61.1912L55.8986 74.643C57.6244 75.098 59.4054 74.071 59.8539 72.355L62.3921 62.9495C62.6261 62.0817 63.5166 61.565 64.3844 61.8022C65.2521 62.0362 65.7624 62.93 65.5316 63.7945L62.9966 73.187C62.2329 76.0795 59.6004 78.0002 56.7209 78.0002Z" fill="#A9A9B9"/>
<path d="M71.5011 58.4997H19.5011C15.9163 58.4997 13.0011 55.5844 13.0011 51.9997V12.9997C13.0011 9.41494 15.9163 6.49969 19.5011 6.49969H71.5011C75.0858 6.49969 78.0011 9.41494 78.0011 12.9997V51.9997C78.0011 55.5844 75.0858 58.4997 71.5011 58.4997ZM19.5011 9.74969C17.7103 9.74969 16.2511 11.2089 16.2511 12.9997V51.9997C16.2511 53.7904 17.7103 55.2497 19.5011 55.2497H71.5011C73.2918 55.2497 74.7511 53.7904 74.7511 51.9997V12.9997C74.7511 11.2089 73.2918 9.74969 71.5011 9.74969H19.5011Z" fill="#A9A9B9"/>
<path d="M29.2511 29.2497C25.6663 29.2497 22.7511 26.3344 22.7511 22.7497C22.7511 19.1649 25.6663 16.2497 29.2511 16.2497C32.8358 16.2497 35.7511 19.1649 35.7511 22.7497C35.7511 26.3344 32.8358 29.2497 29.2511 29.2497ZM29.2511 19.4997C27.4603 19.4997 26.0011 20.9589 26.0011 22.7497C26.0011 24.5404 27.4603 25.9997 29.2511 25.9997C31.0418 25.9997 32.5011 24.5404 32.5011 22.7497C32.5011 20.9589 31.0418 19.4997 29.2511 19.4997Z" fill="#A9A9B9"/>
<path d="M14.8534 55.0227C14.4374 55.0227 14.0214 54.8635 13.7029 54.5482C13.0691 53.9145 13.0691 52.8842 13.7029 52.2505L29.0526 36.9007C30.8921 35.0612 34.1063 35.0612 35.9458 36.9007L40.5153 41.4702L53.1643 26.2927C54.0841 25.191 55.4361 24.5507 56.8758 24.5377H56.9116C58.3351 24.5377 59.6838 25.1552 60.6133 26.2375L77.6108 46.069C78.1958 46.7482 78.1178 47.7752 77.4353 48.3602C76.7561 48.9452 75.7323 48.8705 75.1441 48.1847L58.1466 28.3532C57.8313 27.9892 57.3958 27.7877 56.9116 27.7877C56.5736 27.7585 55.9788 27.9925 55.6636 28.3727L41.8738 44.9185C41.5813 45.2695 41.1556 45.4807 40.6973 45.5002C40.2358 45.5327 39.7971 45.3507 39.4753 45.0257L33.6481 39.1985C33.0338 38.5875 31.9646 38.5875 31.3503 39.1985L16.0006 54.5482C15.6853 54.8635 15.2694 55.0227 14.8534 55.0227Z" fill="#A9A9B9"/>
</g>
<defs>
<clipPath id="clip0">
<rect width="78" height="78" fill="white"/>
</clipPath>
</defs>
</svg>
