<svg width="60" height="60" viewBox="0 0 60 60" fill="none" xmlns="http://www.w3.org/2000/svg">
<path d="M45.9375 57.1875H14.0625C12.5707 57.1875 11.1399 56.5949 10.085 55.54C9.03013 54.4851 8.4375 53.0543 8.4375 51.5625V8.4375C8.4375 6.94566 9.03013 5.51492 10.085 4.46002C11.1399 3.40513 12.5707 2.8125 14.0625 2.8125H40.3125L51.5625 14.0625V51.5625C51.5625 53.0543 50.9699 54.4851 49.915 55.54C48.8601 56.5949 47.4293 57.1875 45.9375 57.1875Z" fill="#E3E3EC"/>
<path d="M8.4375 42.1875H51.5625V51.5625C51.5625 53.0543 50.9699 54.4851 49.915 55.54C48.8601 56.5949 47.4293 57.1875 45.9375 57.1875H14.0625C12.5707 57.1875 11.1399 56.5949 10.085 55.54C9.03013 54.4851 8.4375 53.0543 8.4375 51.5625V42.1875Z" fill="#A9A9B9"/>
<path d="M51.5625 14.0625H45.9375C44.4457 14.0625 43.0149 13.4699 41.96 12.415C40.9051 11.3601 40.3125 9.92934 40.3125 8.4375V2.8125L51.5625 14.0625Z" fill="#A9A9B9"/>
<path d="M17.8125 15.9375H42.1875V34.6875H17.8125V15.9375Z" fill="white"/>
<path d="M25.3125 25.3125L30 30.9375L35.625 29.0625L42.1875 34.6875H17.8125L25.3125 25.3125Z" fill="#A9A9B9"/>
<path d="M33.75 25.3125C34.7855 25.3125 35.625 24.473 35.625 23.4375C35.625 22.402 34.7855 21.5625 33.75 21.5625C32.7145 21.5625 31.875 22.402 31.875 23.4375C31.875 24.473 32.7145 25.3125 33.75 25.3125Z" fill="#A9A9B9"/>
<path d="M29.0625 45H27.1875C26.9389 45 26.7004 45.0988 26.5246 45.2746C26.3488 45.4504 26.25 45.6889 26.25 45.9375V53.4375C26.25 53.6861 26.3488 53.9246 26.5246 54.1004C26.7004 54.2762 26.9389 54.375 27.1875 54.375C27.4361 54.375 27.6746 54.2762 27.8504 54.1004C28.0262 53.9246 28.125 53.6861 28.125 53.4375V50.625H29.0625C29.8084 50.625 30.5238 50.3287 31.0512 49.8012C31.5787 49.2738 31.875 48.5584 31.875 47.8125C31.875 47.0666 31.5787 46.3512 31.0512 45.8238C30.5238 45.2963 29.8084 45 29.0625 45ZM29.0625 48.75H28.125V46.875H29.0625C29.3111 46.875 29.5496 46.9738 29.7254 47.1496C29.9012 47.3254 30 47.5639 30 47.8125C30 48.0611 29.9012 48.2996 29.7254 48.4754C29.5496 48.6512 29.3111 48.75 29.0625 48.75Z" fill="white"/>
<path d="M23.4375 45C23.1889 45 22.9504 45.0988 22.7746 45.2746C22.5988 45.4504 22.5 45.6889 22.5 45.9375V51.5625C22.5 51.8111 22.4012 52.0496 22.2254 52.2254C22.0496 52.4012 21.8111 52.5 21.5625 52.5C21.3139 52.5 21.0754 52.4012 20.8996 52.2254C20.7238 52.0496 20.625 51.8111 20.625 51.5625C20.625 51.3139 20.5262 51.0754 20.3504 50.8996C20.1746 50.7238 19.9361 50.625 19.6875 50.625C19.4389 50.625 19.2004 50.7238 19.0246 50.8996C18.8488 51.0754 18.75 51.3139 18.75 51.5625C18.75 52.3084 19.0463 53.0238 19.5738 53.5512C20.1012 54.0787 20.8166 54.375 21.5625 54.375C22.3084 54.375 23.0238 54.0787 23.5512 53.5512C24.0787 53.0238 24.375 52.3084 24.375 51.5625V45.9375C24.375 45.6889 24.2762 45.4504 24.1004 45.2746C23.9246 45.0988 23.6861 45 23.4375 45Z" fill="white"/>
<path d="M40.3125 48.75H38.4375C38.1889 48.75 37.9504 48.8488 37.7746 49.0246C37.5988 49.2004 37.5 49.4389 37.5 49.6875C37.5 49.9361 37.5988 50.1746 37.7746 50.3504C37.9504 50.5262 38.1889 50.625 38.4375 50.625H39.2636C38.9996 51.7051 38.2984 52.5 37.5 52.5C36.4836 52.5 35.625 51.212 35.625 49.6875C35.625 48.163 36.4836 46.875 37.5 46.875C37.6862 46.8759 37.8699 46.9182 38.0378 46.9989C38.2627 47.1049 38.5205 47.1172 38.7545 47.0331C38.8704 46.9915 38.9769 46.9275 39.068 46.8447C39.1591 46.7619 39.233 46.6619 39.2855 46.5506C39.338 46.4392 39.3681 46.3186 39.3739 46.1956C39.3798 46.0726 39.3614 45.9497 39.3198 45.8338C39.2782 45.718 39.2141 45.6114 39.1313 45.5203C39.0485 45.4292 38.9486 45.3553 38.8372 45.3028C38.4195 45.1039 37.9627 45.0004 37.5 45C35.4322 45 33.75 47.1028 33.75 49.6875C33.75 52.2722 35.4322 54.375 37.5 54.375C39.5678 54.375 41.25 52.2722 41.25 49.6875C41.25 49.4389 41.1512 49.2004 40.9754 49.0246C40.7996 48.8488 40.5611 48.75 40.3125 48.75Z" fill="white"/>
</svg>
