<svg width="58" height="51" viewBox="0 0 58 51" fill="none" xmlns="http://www.w3.org/2000/svg">
<circle cx="22.6667" cy="22.6667" r="22.1667" fill="white" stroke="#E3E3EC"/>
<circle cx="45.5" cy="38.5" r="12.5" fill="#EB5757"/>
<path d="M14 33H22C29.5789 33 34 28.5 34 22.44C34 16.32 29.6391 12 22.1203 12H14V33ZM19.8346 27.84V17.1H22.2105C25.6992 17.1 28.015 19.11 28.015 22.47C28.015 25.92 25.6992 27.84 22.2105 27.84H19.8346Z" fill="#1F1F24"/>
<path d="M42 44H47.1901C49.5911 44 51 42.9571 51 41.2429C51 39.8571 50.2236 39.1714 49.0016 38.7714C49.893 38.3857 50.5543 37.7 50.5543 36.5429C50.5543 35.8286 50.3099 35.3 49.9073 34.9C49.3179 34.3143 48.4265 34 47.1613 34H42V44ZM44.7173 41.7714V39.9286H46.845C47.7796 39.9286 48.2109 40.2857 48.2109 40.8286C48.2109 41.4429 47.722 41.7714 46.8738 41.7714H44.7173ZM44.7173 37.9857V36.2286H46.5288C47.3626 36.2286 47.7939 36.5429 47.7939 37.0857C47.7939 37.7 47.3195 37.9857 46.4712 37.9857H44.7173Z" fill="white"/>
</svg>
