<svg width="60" height="60" viewBox="0 0 60 60" fill="none" xmlns="http://www.w3.org/2000/svg">
<path d="M15 0C12.9375 0 11.25 1.6875 11.25 3.75V56.25C11.25 58.3125 12.9375 60 15 60H52.5C54.5625 60 56.25 58.3125 56.25 56.25V15L41.25 0H15Z" fill="#E3E3EC"/>
<path d="M45 15H56.25L41.25 0V11.25C41.25 13.3125 42.9375 15 45 15Z" fill="#A9A9B9"/>
<path d="M48.75 48.75C48.75 49.7812 47.9062 50.625 46.875 50.625H5.625C4.59375 50.625 3.75 49.7812 3.75 48.75V30C3.75 28.9688 4.59375 28.125 5.625 28.125H46.875C47.9062 28.125 48.75 28.9688 48.75 30V48.75Z" fill="#A9A9B9"/>
<path d="M11.923 35.5256C11.923 35.0306 12.313 34.4906 12.9411 34.4906H16.4042C18.3542 34.4906 20.1092 35.7956 20.1092 38.2968C20.1092 40.6669 18.3542 41.9869 16.4042 41.9869H13.9011V43.9669C13.9011 44.6269 13.4811 45 12.9411 45C12.4461 45 11.923 44.6269 11.923 43.9669V35.5256ZM13.9011 36.3787V40.1137H16.4042C17.4092 40.1137 18.2042 39.2268 18.2042 38.2968C18.2042 37.2487 17.4092 36.3787 16.4042 36.3787H13.9011Z" fill="white"/>
<path d="M23.0454 45C22.5504 45 22.0104 44.73 22.0104 44.0719V35.5556C22.0104 35.0175 22.5504 34.6256 23.0454 34.6256H26.4785C33.3297 34.6256 33.1797 45 26.6135 45H23.0454ZM23.9904 36.4556V43.1719H26.4785C30.5266 43.1719 30.7066 36.4556 26.4785 36.4556H23.9904Z" fill="white"/>
<path d="M35.6098 36.5757V38.9588H39.4329C39.9729 38.9588 40.5129 39.4988 40.5129 40.0219C40.5129 40.5169 39.9729 40.9219 39.4329 40.9219H35.6098V44.07C35.6098 44.595 35.2366 44.9982 34.7116 44.9982C34.0516 44.9982 33.6485 44.595 33.6485 44.07V35.5538C33.6485 35.0157 34.0535 34.6238 34.7116 34.6238H39.9748C40.6348 34.6238 41.0247 35.0157 41.0247 35.5538C41.0247 36.0338 40.6348 36.5738 39.9748 36.5738H35.6098V36.5757Z" fill="white"/>
</svg>
