<svg width="24" height="24" viewBox="0 0 24 24" fill="none" xmlns="http://www.w3.org/2000/svg">
<g clip-path="url(#clip0)">
<path d="M8.75 17.612V22.25C8.75 22.574 8.958 22.861 9.266 22.963C9.343 22.988 9.422 23 9.5 23C9.734 23 9.96 22.89 10.104 22.694L12.817 19.002L8.75 17.612Z" fill="#0085FF"/>
<path d="M23.685 0.13905C23.455 -0.0239495 23.153 -0.0459495 22.903 0.0850505L0.403045 11.8351C0.137044 11.9741 -0.0199555 12.2581 0.00204448 12.5571C0.0250445 12.8571 0.224045 13.1131 0.507045 13.2101L6.76205 15.3481L20.083 3.95805L9.77505 16.3771L20.258 19.96C20.336 19.986 20.418 20 20.5 20C20.636 20 20.771 19.9631 20.89 19.8911C21.08 19.7751 21.209 19.58 21.242 19.361L23.992 0.86105C24.033 0.581051 23.915 0.30305 23.685 0.13905Z" fill="#0085FF"/>
</g>
<defs>
<clipPath id="clip0">
<rect width="24" height="24" fill="white"/>
</clipPath>
</defs>
</svg>
