<svg width="48" height="60" viewBox="0 0 48 60" fill="none" xmlns="http://www.w3.org/2000/svg">
<path d="M33.6267 0H2.53173C1.66602 0 0.964233 0.701786 0.964233 2.06357V58.9286C0.964233 59.2982 1.66602 60 2.53173 60H45.4682C46.3339 60 47.0357 59.2982 47.0357 58.9286V13.905C47.0357 13.1593 46.936 12.9193 46.7603 12.7425L34.2932 0.275357C34.1164 0.0996428 33.8764 0 33.6267 0Z" fill="#E3E3EC"/>
<path d="M45.4682 60H2.53173C1.66602 60 0.964233 59.2983 0.964233 58.4325V41.7858H47.0357V58.4325C47.0357 59.2983 46.3339 60 45.4682 60Z" fill="#A9A9B9"/>
<path d="M34.1785 0.161743V12.8571H46.8738L34.1785 0.161743Z" fill="#A9A9B9"/>
<path d="M12.6267 56.7857H10.8685V45.99H13.9735C14.4321 45.99 14.8864 46.0628 15.3353 46.2096C15.7842 46.3564 16.1871 46.5761 16.5439 46.8686C16.9007 47.1611 17.1889 47.5157 17.4085 47.9303C17.6282 48.345 17.7385 48.8111 17.7385 49.3296C17.7385 49.8771 17.6453 50.3721 17.46 50.8168C17.2746 51.2614 17.0153 51.6353 16.6832 51.9375C16.351 52.2396 15.9503 52.4743 15.4821 52.6404C15.0139 52.8064 14.4953 52.8889 13.9296 52.8889H12.6257V56.7857H12.6267ZM12.6267 47.3228V51.6H14.2382C14.4525 51.6 14.6646 51.5636 14.8757 51.4896C15.0857 51.4168 15.2785 51.2968 15.4542 51.1307C15.63 50.9646 15.7714 50.7332 15.8785 50.4354C15.9857 50.1375 16.0392 49.7689 16.0392 49.3296C16.0392 49.1539 16.0146 48.9503 15.9664 48.7221C15.9171 48.4928 15.8175 48.2732 15.6664 48.0632C15.5142 47.8532 15.3021 47.6775 15.0289 47.5361C14.7557 47.3946 14.3935 47.3239 13.9446 47.3239H12.6267V47.3228Z" fill="white"/>
<path d="M27.5529 45.99V56.7857H25.7657L21.5325 49.3446V56.7857H19.7454V45.99H21.5325L25.7657 53.4311V45.99H27.5529Z" fill="white"/>
<path d="M38.1 51.2197V55.394C37.875 55.6779 37.6243 55.9083 37.3457 56.0893C37.0672 56.2704 36.7747 56.4193 36.4672 56.5361C36.1597 56.6529 35.8414 56.7365 35.5147 56.7858C35.1868 56.835 34.8632 56.8586 34.5407 56.8586C33.8957 56.8586 33.3032 56.7418 32.7611 56.5072C32.2189 56.2725 31.7454 55.9265 31.3404 55.4668C30.9354 55.0072 30.6172 54.4318 30.3879 53.7386C30.1586 53.0454 30.0439 52.244 30.0439 51.3365C30.0439 50.429 30.1586 49.6297 30.3879 48.9418C30.6172 48.2529 30.9343 47.6797 31.3404 47.2211C31.7454 46.7615 32.2211 46.4133 32.7686 46.1733C33.315 45.9333 33.9064 45.8143 34.5407 45.8143C35.1268 45.8143 35.6732 45.9118 36.1811 46.1068C36.6889 46.3029 37.1422 46.5954 37.5429 46.9854L36.3268 48.0697C36.0922 47.7858 35.8232 47.5811 35.5211 47.4547C35.2179 47.3283 34.9061 47.264 34.5836 47.264C34.2225 47.264 33.8775 47.3315 33.5507 47.4686C33.2229 47.6058 32.9304 47.8372 32.6722 48.164C32.4129 48.4918 32.2104 48.9129 32.0647 49.4315C31.9189 49.95 31.8397 50.5833 31.83 51.3354C31.8397 52.0683 31.9157 52.7025 32.0572 53.2393C32.1986 53.7761 32.3936 54.2154 32.6432 54.5572C32.8929 54.899 33.1757 55.1529 33.4929 55.319C33.81 55.485 34.1443 55.5675 34.4968 55.5675C34.6039 55.5675 34.7475 55.56 34.9286 55.545C35.1086 55.53 35.2897 55.5065 35.4707 55.4722C35.6507 55.4379 35.8243 55.3918 35.9904 55.3329C36.1564 55.274 36.2786 55.1915 36.3568 55.0843V52.4186H34.5257V51.2175H38.1V51.2197Z" fill="white"/>
<path d="M14.2832 20.3571C16.9868 20.3571 19.1785 18.1654 19.1785 15.4618C19.1785 12.7581 16.9868 10.5664 14.2832 10.5664C11.5795 10.5664 9.38782 12.7581 9.38782 15.4618C9.38782 18.1654 11.5795 20.3571 14.2832 20.3571Z" fill="#A9A9B9"/>
<path d="M0.964233 41.7857H12.7499H47.0357V30L36.3214 19.8214L25.0714 32.1428L19.1967 26.2682L0.964233 41.7857Z" fill="#A9A9B9"/>
</svg>
