<svg width="38" height="38" viewBox="0 0 38 38" fill="none" xmlns="http://www.w3.org/2000/svg">
<g clip-path="url(#clip0)">
<path d="M19.0003 4.48527V7.44751H16.0381V4.48527H19.0003ZM16.0381 21.8884V26.1096H19.0003V21.8884H16.0381ZM24.9248 37.9586V34.9963H21.9626V32.0341H19.0003V37.9586H24.9248ZM30.8493 15.9639H21.9626V18.9262H30.8493V15.9639ZM30.8493 21.8884H34.9964V18.9262H30.8493V21.8884ZM30.8493 26.1096V29.0719H37.9587V21.8884H34.9964V26.1096H30.8493ZM21.9626 0.0419083H19.0003V4.48527H21.9626V0.0419083ZM19.0003 13.372H21.9626V7.44751H19.0003V10.4097H16.0381V18.9262H19.0003V13.372ZM0.0419922 15.9639V21.8884H3.00423V18.9262H7.44759V15.9639H0.0419922ZM21.9626 21.8884V18.9262H19.0003V21.8884H21.9626ZM27.887 24.8507H30.8493V21.8884H27.887V24.8507ZM34.9964 18.9262H37.9587V15.9639H34.9964V18.9262ZM24.9248 21.8884H21.9626V26.1096H19.0003V29.0719H24.9248V21.8884ZM16.0381 32.0341H19.0003V29.0719H16.0381V32.0341ZM24.9248 29.0719V32.0341H30.8493V29.0719H24.9248ZM33.8115 34.9963V32.0341H30.8493V34.9963H33.8115ZM37.9587 37.9586V34.9963H33.8115V37.9586H37.9587ZM27.887 37.9586H30.8493V34.9963H27.887V37.9586ZM13.3721 18.9262V15.9639H10.4098V18.9262H7.44759V21.8884H16.0381V18.9262H13.3721ZM13.3721 13.372H0.0419922V0.0419083H13.3721V13.372ZM10.4098 3.00415H3.00423V10.4097H10.4098V3.00415ZM8.18815 5.22583H5.22591V8.18807H8.18815V5.22583ZM37.9587 0.0419083V13.372H24.6286V0.0419083H37.9587ZM34.9964 3.00415H27.5908V10.4097H34.9964V3.00415ZM32.7747 5.22583H29.8125V8.18807H32.7747V5.22583ZM0.0419922 24.6285H13.3721V37.9586H0.0419922V24.6285ZM3.00423 34.9963H10.4098V27.5907H3.00423V34.9963ZM5.22591 32.7747H8.18815V29.8124H5.22591V32.7747Z" fill="#0085FF"/>
</g>
<defs>
<clipPath id="clip0">
<rect width="37.9167" height="37.9167" fill="white" transform="translate(0.0419922 0.0419083)"/>
</clipPath>
</defs>
</svg>
