<svg width="38" height="38" viewBox="0 0 38 38" fill="none" xmlns="http://www.w3.org/2000/svg">
<path d="M19.0003 4.48502V7.44726H16.0381V4.48502H19.0003ZM16.0381 21.8882V26.1094H19.0003V21.8882H16.0381ZM24.9248 37.9583V34.9961H21.9626V32.0339H19.0003V37.9583H24.9248ZM30.8493 15.9637H21.9626V18.9259H30.8493V15.9637ZM30.8493 21.8882H34.9964V18.9259H30.8493V21.8882ZM30.8493 26.1094V29.0716H37.9587V21.8882H34.9964V26.1094H30.8493ZM21.9626 0.0416641H19.0003V4.48502H21.9626V0.0416641ZM19.0003 13.3717H21.9626V7.44726H19.0003V10.4095H16.0381V18.9259H19.0003V13.3717ZM0.0419922 15.9637V21.8882H3.00423V18.9259H7.44759V15.9637H0.0419922ZM21.9626 21.8882V18.9259H19.0003V21.8882H21.9626ZM27.887 24.8504H30.8493V21.8882H27.887V24.8504ZM34.9964 18.9259H37.9587V15.9637H34.9964V18.9259ZM24.9248 21.8882H21.9626V26.1094H19.0003V29.0716H24.9248V21.8882ZM16.0381 32.0339H19.0003V29.0716H16.0381V32.0339ZM24.9248 29.0716V32.0339H30.8493V29.0716H24.9248ZM33.8115 34.9961V32.0339H30.8493V34.9961H33.8115ZM37.9587 37.9583V34.9961H33.8115V37.9583H37.9587ZM27.887 37.9583H30.8493V34.9961H27.887V37.9583ZM13.3721 18.9259V15.9637H10.4098V18.9259H7.44759V21.8882H16.0381V18.9259H13.3721ZM13.3721 13.3717H0.0419922V0.0416641H13.3721V13.3717ZM10.4098 3.0039H3.00423V10.4095H10.4098V3.0039ZM8.18815 5.22558H5.22591V8.18782H8.18815V5.22558ZM37.9587 0.0416641V13.3717H24.6286V0.0416641H37.9587ZM34.9964 3.0039H27.5908V10.4095H34.9964V3.0039ZM32.7747 5.22558H29.8125V8.18782H32.7747V5.22558ZM0.0419922 24.6283H13.3721V37.9583H0.0419922V24.6283ZM3.00423 34.9961H10.4098V27.5905H3.00423V34.9961ZM5.22591 32.7744H8.18815V29.8122H5.22591V32.7744Z" fill="#A9A9B9"/>
</svg>
