<svg width="24" height="24" viewBox="0 0 24 24" fill="none" xmlns="http://www.w3.org/2000/svg">
<path d="M9.89062 13.4062C9.89062 14.5693 10.8369 15.5156 12 15.5156C13.1631 15.5156 14.1094 14.5693 14.1094 13.4062C14.1094 12.2432 13.1631 11.2969 12 11.2969C10.8369 11.2969 9.89062 12.2432 9.89062 13.4062Z" fill="#0085FF"/>
<path d="M12 16.9219C9.67365 16.9219 7.78125 18.8143 7.78125 21.1406V24H16.2188V21.1406C16.2188 18.8143 14.3264 16.9219 12 16.9219Z" fill="#0085FF"/>
<path d="M6.375 14.8125C6.375 13.6494 5.42871 12.7031 4.26562 12.7031C3.10254 12.7031 2.15625 13.6494 2.15625 14.8125C2.15625 15.9756 3.10254 16.9219 4.26562 16.9219C5.42871 16.9219 6.375 15.9756 6.375 14.8125Z" fill="#0085FF"/>
<path d="M21.8438 14.8125C21.8438 13.6494 20.8975 12.7031 19.7344 12.7031C18.5713 12.7031 17.625 13.6494 17.625 14.8125C17.625 15.9756 18.5713 16.9219 19.7344 16.9219C20.8975 16.9219 21.8438 15.9756 21.8438 14.8125Z" fill="#0085FF"/>
<path d="M3.5625 0L2.4928 2.52191L0 2.87347L1.79791 4.5813L1.38446 7.07812L3.5625 5.93976L5.74054 7.07812L5.32709 4.5813L7.07812 2.87347L4.65839 2.52191L3.5625 0Z" fill="#0085FF"/>
<path d="M13.0959 2.52191L12 0L10.9303 2.52191L8.48438 2.87347L10.2354 4.5813L9.82196 7.07812L12 5.93976L14.178 7.07812L13.7646 4.5813L15.5156 2.87347L13.0959 2.52191Z" fill="#0085FF"/>
<path d="M20.4375 0L19.3678 2.52191L16.9219 2.87347L18.6729 4.5813L18.2595 7.07812L20.4375 5.93976L22.6155 7.07812L22.2021 4.5813L24 2.87347L21.5334 2.52191L20.4375 0Z" fill="#0085FF"/>
<path d="M19.7341 18.3281C18.7995 18.3281 17.9442 18.6418 17.2451 19.1559C17.4804 19.7754 17.6247 20.4397 17.6247 21.1406V24H23.9997V22.5469C23.9997 20.2169 22.0641 18.3281 19.7341 18.3281Z" fill="#0085FF"/>
<path d="M0 22.5469V24H6.375V21.1406C6.375 20.4397 6.51929 19.7754 6.75458 19.1559C6.05548 18.6418 5.2002 18.3281 4.26562 18.3281C1.93561 18.3281 0 20.2169 0 22.5469Z" fill="#0085FF"/>
</svg>
