<svg width="24" height="24" viewBox="0 0 24 24" fill="none" xmlns="http://www.w3.org/2000/svg">
<path d="M15.6322 15.0022C15.5533 14.6953 15.4309 14.4005 15.2687 14.1259C15.2161 14.0368 15.2304 13.9235 15.3035 13.8504L15.8654 13.2885L14.904 12.3272L14.3422 12.889C14.2691 12.9622 14.1556 12.9766 14.0667 12.9239C13.792 12.7616 13.4972 12.6392 13.1903 12.5603C13.0902 12.5345 13.0202 12.4443 13.0202 12.3409V11.5469H11.6607V12.3409C11.6607 12.4443 11.5907 12.5345 11.4905 12.5603C11.1837 12.6392 10.8889 12.7616 10.6142 12.9239C10.5252 12.9766 10.4118 12.9622 10.3387 12.889L9.77684 12.3272L8.81548 13.2885L9.37733 13.8504C9.45045 13.9235 9.4648 14.0369 9.4122 14.1259C9.24997 14.4004 9.12762 14.6953 9.04864 15.0022C9.02286 15.1024 8.93258 15.1723 8.82917 15.1723H8.03516V16.5319H8.82917C8.93258 16.5319 9.02286 16.6019 9.04864 16.702C9.12762 17.0089 9.24997 17.3037 9.4122 17.5783C9.4648 17.6674 9.45045 17.7807 9.37733 17.8538L8.81548 18.4157L9.77684 19.377L10.3387 18.8152C10.4118 18.742 10.5252 18.7277 10.6142 18.7803C10.8889 18.9426 11.1837 19.065 11.4905 19.1439C11.5907 19.1697 11.6607 19.2599 11.6607 19.3633V20.1573H13.0202V19.3633C13.0202 19.2599 13.0902 19.1697 13.1903 19.1439C13.4972 19.065 13.792 18.9426 14.0667 18.7803C14.1557 18.7276 14.269 18.742 14.3422 18.8152L14.904 19.377L15.8654 18.4157L15.3035 17.8538C15.2304 17.7807 15.2161 17.6673 15.2687 17.5783C15.4309 17.3038 15.5533 17.0089 15.6322 16.702C15.658 16.6018 15.7483 16.5319 15.8517 16.5319H16.6457V15.1723H15.8517C15.7483 15.1724 15.658 15.1024 15.6322 15.0022ZM13.8364 17.3481C13.4309 17.7536 12.8963 17.9643 12.3395 17.9643C11.998 17.9643 11.6482 17.8851 11.3145 17.7231C10.9956 17.5682 10.6244 17.197 10.4695 16.8781C10.0431 16.0002 10.1903 15.0103 10.8445 14.3561C11.4986 13.702 12.4885 13.5549 13.3663 13.9812C13.6852 14.1361 14.0564 14.5073 14.2114 14.8262C14.6377 15.7041 14.4905 16.694 13.8364 17.3481Z" fill="#0085FF"/>
<path d="M13.1674 14.3873C12.8762 14.2458 12.5977 14.1868 12.341 14.1868C11.8473 14.1868 11.434 14.4051 11.164 14.675C10.7538 15.0852 10.4627 15.827 10.8762 16.6785C10.9869 16.9063 11.2838 17.2032 11.5116 17.3138C12.363 17.7274 13.1048 17.4363 13.515 17.0261C13.9253 16.6158 14.2163 15.8741 13.8028 15.0226C13.6922 14.7948 13.3953 14.4979 13.1674 14.3873Z" fill="#0085FF"/>
<path d="M10.301 4.97491C10.301 3.85043 11.2159 2.93557 12.3403 2.93557C13.4648 2.93557 14.3797 3.85043 14.3797 4.97491V8.18693C15.1935 8.40368 15.9563 8.74671 16.6456 9.19404V6.66724C17.2332 7.68602 18.3331 8.37377 19.5913 8.37377C21.4655 8.37377 22.9902 6.84902 22.9902 4.97491C22.9902 3.1008 21.4655 1.57605 19.5913 1.57605C18.174 1.57605 16.9572 2.44835 16.4478 3.68397C15.8981 1.93882 14.2648 0.669678 12.3404 0.669678C9.96645 0.669678 8.03516 2.60102 8.03516 4.97491V9.19404C8.72445 8.74671 9.48725 8.40368 10.3011 8.18693V4.97491H10.301ZM18.4308 5.11905C18.5193 5.0306 18.6628 5.0306 18.7513 5.11905L19.193 5.56085L20.6351 4.11879C20.7236 4.03033 20.867 4.03033 20.9555 4.11879C21.044 4.20729 21.044 4.35077 20.9555 4.43922L19.3533 6.04146C19.309 6.08571 19.251 6.10783 19.193 6.10783C19.1351 6.10783 19.0771 6.08571 19.0328 6.04146L18.4308 5.43944C18.3423 5.35099 18.3423 5.20751 18.4308 5.11905Z" fill="#0085FF"/>
<path d="M12.3399 8.37329C8.21673 8.37329 4.8623 11.7277 4.8623 15.8508C4.8623 19.974 8.21673 23.3284 12.3399 23.3284C16.463 23.3284 19.8174 19.974 19.8174 15.8508C19.8174 11.7277 16.463 8.37329 12.3399 8.37329ZM17.0983 16.7572C17.0983 16.8823 16.9968 16.9838 16.8717 16.9838H16.0225C15.9514 17.2149 15.8584 17.439 15.7447 17.6534L16.3455 18.2542C16.3879 18.2967 16.4118 18.3543 16.4118 18.4144C16.4118 18.4745 16.388 18.5321 16.3455 18.5747L15.0637 19.8564C15.0211 19.899 14.9635 19.9228 14.9034 19.9228C14.8434 19.9228 14.7857 19.899 14.7432 19.8564L14.1424 19.2557C13.928 19.3694 13.7039 19.4625 13.4728 19.5335V20.3827C13.4728 20.5078 13.3714 20.6093 13.2462 20.6093H11.4335C11.3083 20.6093 11.2069 20.5078 11.2069 20.3827V19.5335C10.9758 19.4625 10.7517 19.3694 10.5373 19.2557L9.93648 19.8564C9.89396 19.899 9.83635 19.9228 9.77626 19.9228C9.71616 19.9228 9.65855 19.899 9.61604 19.8564L8.33424 18.5747C8.29177 18.5322 8.26787 18.4745 8.26787 18.4144C8.26787 18.3543 8.29173 18.2967 8.33424 18.2542L8.93504 17.6534C8.82127 17.439 8.72827 17.2149 8.65721 16.9838H7.80802C7.68287 16.9838 7.58143 16.8823 7.58143 16.7572V14.9444C7.58143 14.8193 7.68287 14.7178 7.80802 14.7178H8.65721C8.72827 14.4867 8.82127 14.2626 8.93504 14.0482L8.33424 13.4474C8.24574 13.3589 8.24574 13.2154 8.33424 13.1269L9.61604 11.8451C9.65855 11.8026 9.71616 11.7787 9.77626 11.7787C9.83635 11.7787 9.89401 11.8026 9.93648 11.8451L10.5373 12.4459C10.7517 12.3322 10.9758 12.2391 11.2069 12.1681V11.3189C11.2069 11.1938 11.3083 11.0923 11.4335 11.0923H13.2462C13.3713 11.0923 13.4728 11.1938 13.4728 11.3189V12.1681C13.7039 12.2391 13.928 12.3322 14.1424 12.4459L14.7432 11.8451C14.7857 11.8026 14.8434 11.7787 14.9034 11.7787C14.9635 11.7787 15.0211 11.8026 15.0637 11.8451L16.3455 13.1269C16.434 13.2154 16.434 13.3589 16.3455 13.4474L15.7447 14.0482C15.8584 14.2626 15.9514 14.4867 16.0225 14.7178H16.8717C16.9968 14.7178 17.0983 14.8193 17.0983 14.9444V16.7572Z" fill="#0085FF"/>
<path d="M21.631 13.133C22.0064 13.133 22.3107 12.8286 22.3107 12.4532C22.3107 12.0778 22.0064 11.7734 21.631 11.7734C21.2555 11.7734 20.9512 12.0778 20.9512 12.4532C20.9512 12.8286 21.2555 13.133 21.631 13.133Z" fill="#0085FF"/>
<path d="M1.69052 6.78705C2.06596 6.78705 2.37031 6.4827 2.37031 6.10727C2.37031 5.73184 2.06596 5.42749 1.69052 5.42749C1.31509 5.42749 1.01074 5.73184 1.01074 6.10727C1.01074 6.4827 1.31509 6.78705 1.69052 6.78705Z" fill="#0085FF"/>
<path d="M3.50205 21.2897C3.87748 21.2897 4.18183 20.9854 4.18183 20.61C4.18183 20.2345 3.87748 19.9302 3.50205 19.9302C3.12661 19.9302 2.82227 20.2345 2.82227 20.61C2.82227 20.9854 3.12661 21.2897 3.50205 21.2897Z" fill="#0085FF"/>
<path d="M5.54205 2.70813C5.79234 2.70813 5.99524 2.50523 5.99524 2.25495C5.99524 2.00466 5.79234 1.80176 5.54205 1.80176C5.29177 1.80176 5.08887 2.00466 5.08887 2.25495C5.08887 2.50523 5.29177 2.70813 5.54205 2.70813Z" fill="#0085FF"/>
<path d="M5.54205 9.50721C5.79234 9.50721 5.99524 9.30431 5.99524 9.05402C5.99524 8.80373 5.79234 8.60083 5.54205 8.60083C5.29177 8.60083 5.08887 8.80373 5.08887 9.05402C5.08887 9.30431 5.29177 9.50721 5.54205 9.50721Z" fill="#0085FF"/>
<path d="M21.8575 20.8366C22.1078 20.8366 22.3107 20.6337 22.3107 20.3834C22.3107 20.1331 22.1078 19.9302 21.8575 19.9302C21.6072 19.9302 21.4043 20.1331 21.4043 20.3834C21.4043 20.6337 21.6072 20.8366 21.8575 20.8366Z" fill="#0085FF"/>
</svg>
