<svg width="24" height="24" viewBox="0 0 24 24" fill="none" xmlns="http://www.w3.org/2000/svg">
<path d="M12 24C18.6274 24 24 18.6274 24 12C24 5.37258 18.6274 0 12 0C5.37258 0 0 5.37258 0 12C0 18.6274 5.37258 24 12 24Z" fill="#0085FF"/>
<g clip-path="url(#clip0)">
<path d="M19.6303 14.1041L17.9424 12.7801C17.9743 12.5241 17.9983 12.2641 17.9983 12.0001C17.9983 11.7361 17.9743 11.4761 17.9424 11.2201L19.6344 9.89612C19.7863 9.77612 19.8304 9.56012 19.7304 9.38413L18.1303 6.61214C18.0303 6.44013 17.8224 6.36813 17.6424 6.44013L15.6504 7.24412C15.2383 6.92811 14.7864 6.66014 14.2984 6.45614L13.9984 4.33615C13.9623 4.14816 13.7984 4.00015 13.5984 4.00015H10.3984C10.1984 4.00015 10.0344 4.14816 10.0024 4.33615L9.70238 6.45614C9.21439 6.66014 8.76237 6.92414 8.35039 7.24412L6.3584 6.44013C6.1784 6.37214 5.97038 6.44013 5.87041 6.61214L4.27036 9.38413C4.17035 9.55615 4.21437 9.77215 4.36636 9.89612L6.05435 11.2201C6.02236 11.4761 5.99836 11.7361 5.99836 12.0001C5.99836 12.2641 6.02236 12.5241 6.05435 12.7801L4.36636 14.1041C4.21437 14.2241 4.17035 14.4401 4.27036 14.6161L5.87037 17.3881C5.97038 17.5601 6.17836 17.6321 6.35836 17.5601L8.35036 16.7561C8.76237 17.0722 9.21436 17.3401 9.70234 17.5441L10.0023 19.6641C10.0343 19.8521 10.1984 20.0001 10.3983 20.0001H13.5983C13.7983 20.0001 13.9623 19.8521 13.9943 19.6641L14.2943 17.5441C14.7823 17.3401 15.2343 17.0761 15.6463 16.7561L17.6383 17.5601C17.8183 17.6281 18.0263 17.5601 18.1263 17.3881L19.7263 14.6161C19.8264 14.4442 19.7823 14.2282 19.6303 14.1041ZM11.9984 14.8001C10.4504 14.8001 9.19834 13.5481 9.19834 12.0001C9.19834 10.4521 10.4504 9.20016 11.9984 9.20016C13.5464 9.20016 14.7984 10.4522 14.7984 12.0002C14.7984 13.5482 13.5464 14.8001 11.9984 14.8001Z" fill="white"/>
</g>
<defs>
<clipPath id="clip0">
<rect width="16" height="16" fill="white" transform="translate(4.00016 4.00015)"/>
</clipPath>
</defs>
</svg>
