<svg width="24" height="24" viewBox="0 0 24 24" fill="none" xmlns="http://www.w3.org/2000/svg">
<path d="M12 24C18.6274 24 24 18.6274 24 12C24 5.37258 18.6274 0 12 0C5.37258 0 0 5.37258 0 12C0 18.6274 5.37258 24 12 24Z" fill="#0085FF"/>
<g clip-path="url(#clip0)">
<path d="M19.6285 14.1033L17.9405 12.7792C17.9725 12.5232 17.9965 12.2632 17.9965 11.9992C17.9965 11.7352 17.9725 11.4753 17.9405 11.2192L19.6325 9.89524C19.7845 9.77524 19.8286 9.55924 19.7285 9.38325L18.1285 6.61125C18.0285 6.43924 17.8205 6.36724 17.6405 6.43924L15.6485 7.24324C15.2365 6.92723 14.7845 6.65925 14.2966 6.45525L13.9966 4.33527C13.9605 4.14728 13.7965 3.99927 13.5965 3.99927H10.3966C10.1966 3.99927 10.0326 4.14728 10.0006 4.33527L9.70056 6.45525C9.21258 6.65925 8.76055 6.92325 8.34858 7.24324L6.35658 6.43924C6.17658 6.37125 5.96857 6.43924 5.86859 6.61125L4.26854 9.38325C4.16853 9.55526 4.21256 9.77126 4.36454 9.89524L6.05253 11.2192C6.02054 11.4753 5.99654 11.7352 5.99654 11.9992C5.99654 12.2632 6.02054 12.5232 6.05253 12.7792L4.36454 14.1033C4.21256 14.2233 4.16853 14.4393 4.26854 14.6152L5.86855 17.3872C5.96857 17.5593 6.17654 17.6313 6.35654 17.5593L8.34854 16.7553C8.76055 17.0713 9.21254 17.3392 9.70053 17.5432L10.0005 19.6632C10.0325 19.8512 10.1965 19.9992 10.3965 19.9992H13.5965C13.7965 19.9992 13.9605 19.8512 13.9925 19.6632L14.2925 17.5432C14.7805 17.3392 15.2325 17.0752 15.6445 16.7553L17.6365 17.5593C17.8165 17.6272 18.0245 17.5593 18.1245 17.3872L19.7245 14.6152C19.8245 14.4433 19.7805 14.2273 19.6285 14.1033ZM11.9965 14.7993C10.4485 14.7993 9.19653 13.5472 9.19653 11.9992C9.19653 10.4512 10.4485 9.19928 11.9965 9.19928C13.5445 9.19928 14.7965 10.4513 14.7965 11.9993C14.7965 13.5473 13.5445 14.7993 11.9965 14.7993Z" fill="white"/>
</g>
<defs>
<clipPath id="clip0">
<rect width="16" height="16" fill="white" transform="translate(3.99902 3.99927)"/>
</clipPath>
</defs>
</svg>
