<svg width="24" height="24" viewBox="0 0 24 24" fill="none" xmlns="http://www.w3.org/2000/svg">
<path fill-rule="evenodd" clip-rule="evenodd" d="M9.98316 2.11598C9.98316 0.274875 11.2467 0 12 0C12.7532 0 14.0167 0.274875 14.0167 2.11598C14.0167 3.64613 13.112 4.89098 12 4.89098C10.8879 4.89098 9.98316 3.64613 9.98316 2.11598ZM19.6673 17.9468C20.6208 17.9468 21.3964 16.8705 21.3964 15.5474C21.3964 13.9665 20.3131 13.7305 19.6673 13.7305C19.0211 13.7305 17.9369 13.9665 17.9369 15.5474C17.9369 16.8705 18.7132 17.9468 19.6673 17.9468ZM4.33252 17.9468C5.28595 17.9468 6.06159 16.8705 6.06159 15.5474C6.06159 13.9665 4.97827 13.7305 4.33252 13.7305C3.68625 13.7305 2.60203 13.9665 2.60203 15.5474C2.60203 16.8705 3.37833 17.9468 4.33252 17.9468ZM1.35056 24V21.877C1.35056 21.6562 1.52953 21.4773 1.75027 21.4773C1.971 21.4773 2.14997 21.6562 2.14997 21.877V24H6.5137V21.877C6.5137 21.6562 6.69263 21.4773 6.91341 21.4773C7.13414 21.4773 7.31306 21.6562 7.31306 21.877V24H8.66376V21.0691C8.66376 20.1069 7.59825 19.6986 6.96309 19.5408C5.15878 19.0944 3.43837 19.0941 1.70391 19.54C0.926813 19.7408 0 20.169 0 21.0691V24H1.35056ZM15.3349 24H16.6854V21.877C16.6854 21.6562 16.8644 21.4773 17.0851 21.4773C17.3059 21.4773 17.4848 21.6562 17.4848 21.877V24H21.8486V21.877C21.8486 21.6562 22.0275 21.4773 22.2483 21.4773C22.469 21.4773 22.648 21.6562 22.648 21.877V24H23.9987V21.0691C23.9987 20.1069 22.9332 19.6986 22.2981 19.5408C20.5186 19.1006 18.7495 19.1003 17.0403 19.54C16.2625 19.7407 15.3349 20.1689 15.3349 21.0691V24H15.3349ZM7.02956 11.7619H8.6693V9.29873C8.6693 9.078 8.84822 8.89903 9.069 8.89903C9.28978 8.89903 9.4687 9.07795 9.4687 9.29873V11.7619H14.5298V9.29869C14.5298 9.07795 14.7088 8.89898 14.9295 8.89898C15.1502 8.89898 15.3292 9.07791 15.3292 9.29869V11.7619H16.9689V8.38172C16.9689 7.25334 15.7338 6.77831 14.9976 6.59559C12.9726 6.09319 10.9561 6.09291 9.00417 6.5948C8.10333 6.82636 7.02961 7.32431 7.02961 8.38177V11.7619H7.02956Z" fill="#0085FF"/>
</svg>
