<svg width="40" height="40" viewBox="0 0 40 40" fill="none" xmlns="http://www.w3.org/2000/svg">
<path d="M13.5938 18.75H5.15625C2.31305 18.75 0 16.437 0 13.5938V5.15625C0 2.31305 2.31305 0 5.15625 0H13.5938C16.437 0 18.75 2.31305 18.75 5.15625V13.5938C18.75 16.437 16.437 18.75 13.5938 18.75ZM5.15625 2.5C3.69156 2.5 2.5 3.69156 2.5 5.15625V13.5938C2.5 15.0584 3.69156 16.25 5.15625 16.25H13.5938C15.0584 16.25 16.25 15.0584 16.25 13.5938V5.15625C16.25 3.69156 15.0584 2.5 13.5938 2.5H5.15625Z" fill="#A9A9B9"/>
<path d="M34.8438 18.75H26.4062C23.563 18.75 21.25 16.437 21.25 13.5938V5.15625C21.25 2.31305 23.563 0 26.4062 0H34.8438C37.687 0 40 2.31305 40 5.15625V13.5938C40 16.437 37.687 18.75 34.8438 18.75ZM26.4062 2.5C24.9416 2.5 23.75 3.69156 23.75 5.15625V13.5938C23.75 15.0584 24.9416 16.25 26.4062 16.25H34.8438C36.3084 16.25 37.5 15.0584 37.5 13.5938V5.15625C37.5 3.69156 36.3084 2.5 34.8438 2.5H26.4062Z" fill="#A9A9B9"/>
<path d="M30.625 40C25.4556 40 21.25 35.7944 21.25 30.625C21.25 25.4556 25.4556 21.25 30.625 21.25C35.7944 21.25 40 25.4556 40 30.625C40 35.7944 35.7944 40 30.625 40ZM30.625 23.75C26.8341 23.75 23.75 26.8341 23.75 30.625C23.75 34.4159 26.8341 37.5 30.625 37.5C34.4159 37.5 37.5 34.4159 37.5 30.625C37.5 26.8341 34.4159 23.75 30.625 23.75Z" fill="#A9A9B9"/>
<path d="M13.5938 40H5.15625C2.31305 40 0 37.687 0 34.8438V26.4062C0 23.563 2.31305 21.25 5.15625 21.25H13.5938C16.437 21.25 18.75 23.563 18.75 26.4062V34.8438C18.75 37.687 16.437 40 13.5938 40ZM5.15625 23.75C3.69156 23.75 2.5 24.9416 2.5 26.4062V34.8438C2.5 36.3084 3.69156 37.5 5.15625 37.5H13.5938C15.0584 37.5 16.25 36.3084 16.25 34.8438V26.4062C16.25 24.9416 15.0584 23.75 13.5938 23.75H5.15625Z" fill="#A9A9B9"/>
</svg>
