<svg width="24" height="24" viewBox="0 0 24 24" fill="none" xmlns="http://www.w3.org/2000/svg">
<path fill-rule="evenodd" clip-rule="evenodd" d="M12 0C18.6168 0 24 5.38322 24 12C24 18.6168 18.6168 24 12 24C5.38317 24 0 18.6168 0 12C0 5.38317 5.38317 0 12 0ZM4.26727 12C4.26727 16.2639 7.73616 19.7328 12 19.7328C16.2639 19.7328 19.7327 16.2639 19.7327 12C19.7327 8.95205 17.9338 6.17939 15.1496 4.93622C15.0674 4.89956 14.9814 4.88217 14.8968 4.88217C14.6595 4.88217 14.4328 5.01914 14.3297 5.2499C14.19 5.56294 14.3304 5.92997 14.6434 6.06975C16.9809 7.11342 18.4913 9.44123 18.4913 12C18.4913 15.5793 15.5793 18.4913 12 18.4913C8.42058 18.4913 5.50856 15.5793 5.50856 12C5.50856 9.44114 7.01897 7.11342 9.35644 6.0698C9.66947 5.93002 9.80991 5.56298 9.67012 5.24995C9.53039 4.93692 9.16336 4.79648 8.85028 4.93627C6.06619 6.17944 4.26727 8.95209 4.26727 12ZM9.86147 11.7855C9.98269 11.6642 10.1415 11.6036 10.3004 11.6036C10.4592 11.6036 10.618 11.6642 10.7393 11.7855L11.3793 12.4255V4.88794C11.3793 4.54519 11.6573 4.26727 12 4.26727C12.3428 4.26727 12.6207 4.54519 12.6207 4.88794V12.4255L13.2607 11.7855C13.5032 11.543 13.8961 11.543 14.1386 11.7855C14.381 12.0279 14.381 12.4208 14.1386 12.6633L12.4389 14.3629C12.1965 14.6054 11.8035 14.6054 11.5611 14.3629L9.86147 12.6633C9.61903 12.4208 9.61903 12.0279 9.86147 11.7855Z" fill="#0085FF"/>
</svg>
