<svg width="145" height="145" viewBox="0 0 145 145" fill="none" xmlns="http://www.w3.org/2000/svg">
<path fill-rule="evenodd" clip-rule="evenodd" d="M72.5 0C112.477 0 145 32.5236 145 72.5C145 112.476 112.477 145 72.5 145C32.5233 145 0 112.477 0 72.5C0 32.5233 32.5233 0 72.5 0ZM25.7814 72.5C25.7814 98.261 46.7393 119.219 72.5 119.219C98.261 119.219 119.219 98.261 119.219 72.5C119.219 54.0853 108.35 37.3338 91.5287 29.823C91.032 29.6015 90.5129 29.4965 90.0017 29.4965C88.5675 29.4965 87.198 30.324 86.5755 31.7182C85.731 33.6094 86.5794 35.8269 88.4707 36.6714C102.593 42.9769 111.719 57.0408 111.719 72.4997C111.719 94.1251 94.1251 111.719 72.4997 111.719C50.8743 111.719 33.2809 94.1251 33.2809 72.4997C33.2809 57.0402 42.4063 42.9769 56.5285 36.6717C58.4197 35.8272 59.2682 33.6097 58.4237 31.7185C57.5794 29.8272 55.362 28.9788 53.4704 29.8233C36.6499 37.3341 25.7814 54.0856 25.7814 72.5V72.5ZM59.5797 71.2038C60.3121 70.4714 61.2716 70.1052 62.2313 70.1052C63.1908 70.1052 64.1506 70.4714 64.883 71.2038L68.7501 75.0709V29.5313C68.7501 27.4605 70.4292 25.7814 72.5003 25.7814C74.5711 25.7814 76.2502 27.4605 76.2502 29.5313V75.0709L80.117 71.2038C81.5818 69.7391 83.9558 69.7391 85.4206 71.2038C86.8853 72.6685 86.8853 75.0426 85.4206 76.5073L75.1519 86.776C73.6872 88.2407 71.3131 88.2407 69.8484 86.776L59.5797 76.5073C58.115 75.0426 58.115 72.6685 59.5797 71.2038Z" fill="#0085FF"/>
</svg>
