<svg width="24" height="24" viewBox="0 0 24 24" fill="none" xmlns="http://www.w3.org/2000/svg">
<g clip-path="url(#clip0)">
<path fill-rule="evenodd" clip-rule="evenodd" d="M8.87222 1.45088C12.9711 1.45088 16.2939 4.77366 16.2939 8.8725C16.2939 12.9713 12.9711 16.2941 8.87222 16.2941C4.77333 16.2941 1.4505 12.9713 1.4505 8.8725C1.4505 4.77366 4.77333 1.45088 8.87222 1.45088ZM5.08673 14.3102C6.16064 15.0602 7.46602 15.501 8.87245 15.501C10.2789 15.501 11.5838 15.0602 12.6582 14.3102V11.0043C12.6582 10.3367 12.1147 9.79303 11.4465 9.79303H10.9135C10.2919 10.141 9.58856 10.3245 8.87245 10.3245C8.15592 10.3245 7.45237 10.141 6.831 9.79303H6.29803C5.62983 9.79303 5.08673 10.3367 5.08673 11.0043V14.3102ZM4.34128 11.0043C4.34128 9.92503 5.21864 9.04767 6.29798 9.04767H6.62086C6.12047 8.50308 5.8147 7.77698 5.8147 6.98053C5.8147 5.29402 7.18594 3.92297 8.87245 3.92297C10.5587 3.92297 11.9302 5.29425 11.9302 6.98053C11.9302 7.77689 11.6242 8.50308 11.1238 9.04767H11.4465C12.5257 9.04767 13.4036 9.92503 13.4036 11.0043V13.7054C14.6937 12.4956 15.501 10.7765 15.501 8.8725C15.501 5.21719 12.5272 2.24395 8.87245 2.24395C5.21705 2.24395 2.24344 5.21719 2.24344 8.8725C2.24344 10.7765 3.05072 12.4956 4.34114 13.7055V11.0043H4.34128V11.0043ZM8.87245 4.66833C7.59727 4.66833 6.56011 5.70548 6.56016 6.98048C6.56016 8.25563 7.59727 9.29273 8.87245 9.29273C10.1471 9.29273 11.1847 8.25558 11.1847 6.98044C11.1847 5.70544 10.1471 4.66833 8.87245 4.66833ZM16.3585 14.9791C15.9461 15.4838 15.4837 15.946 14.9791 16.3585L16.7626 18.1418L18.142 16.7625L16.3585 14.9791ZM21.3801 24L16.7031 19.3231L19.3232 16.7031L24 21.38L21.3801 24ZM0 8.8725C0 13.7645 3.97988 17.7444 8.87245 17.7444C13.7646 17.7444 17.7445 13.7646 17.7445 8.87255C17.7445 3.98002 13.7647 0 8.87245 0C3.97988 0 0 3.98002 0 8.8725H0Z" fill="#0085FF"/>
</g>
<defs>
<clipPath id="clip0">
<rect width="24" height="24" fill="white"/>
</clipPath>
</defs>
</svg>
