<svg width="78" height="65" viewBox="0 0 78 65" fill="none" xmlns="http://www.w3.org/2000/svg">
<path d="M65 0H0V65H78V0H65ZM10.4 62.4H2.6V54.6H10.4V62.4ZM10.4 52H2.6V44.2H10.4V52ZM10.4 41.6H2.6V33.8H10.4V41.6ZM10.4 31.2H2.6V23.4H10.4V31.2ZM10.4 20.8H2.6V13H10.4V20.8ZM10.4 10.4H2.6V2.6H10.4V10.4ZM65 62.4H13V2.6H65V62.4ZM75.4 62.4H67.6V54.6H75.4V62.4ZM75.4 52H67.6V44.2H75.4V52ZM75.4 41.6H67.6V33.8H75.4V41.6ZM75.4 31.2H67.6V23.4H75.4V31.2ZM75.4 20.8H67.6V13H75.4V20.8ZM75.4 10.4H67.6V2.6H75.4V10.4Z" fill="#A9A9B9"/>
<path d="M49.2328 31.8506C49.1177 31.6494 48.951 31.4829 48.75 31.3678L30.55 20.9678C29.9283 20.6089 29.1332 20.8219 28.7742 21.4436C28.659 21.6432 28.5989 21.8697 28.6 22.1001V42.9001C28.6005 43.3641 28.8481 43.7926 29.25 44.0246C29.6522 44.2568 30.1478 44.2568 30.55 44.0246L48.75 33.6246C49.3732 33.2681 49.5893 32.474 49.2328 31.8506ZM31.2 40.6589V24.3413L45.4792 32.5001L31.2 40.6589Z" fill="#A9A9B9"/>
</svg>
