<svg width="40" height="40" viewBox="0 0 40 40" fill="none" xmlns="http://www.w3.org/2000/svg">
<path d="M16.1465 20.0085L31.1104 5.0439C31.5225 4.63285 31.7491 4.08325 31.7491 3.49724C31.7491 2.91089 31.5225 2.36163 31.1104 1.94992L29.7992 0.63935C29.3878 0.226992 28.8379 0 28.2519 0C27.6659 0 27.1166 0.226992 26.7049 0.63935L8.888 18.4559C8.47466 18.8689 8.24832 19.4208 8.24995 20.0075C8.24832 20.5967 8.47434 21.148 8.888 21.5613L26.6883 39.3606C27.1 39.773 27.6493 40 28.2356 40C28.8217 40 29.3709 39.773 29.783 39.3606L31.0938 38.0501C31.9469 37.1971 31.9469 35.8085 31.0938 34.9558L16.1465 20.0085Z" fill="white"/>
</svg>
