<svg width="32" height="32" viewBox="0 0 32 32" fill="none" xmlns="http://www.w3.org/2000/svg">
<circle cx="16" cy="16" r="16" fill="#C9CCD3"/>
<path d="M14.4586 16.0034L20.4442 10.0176C20.609 9.85314 20.6997 9.6333 20.6997 9.39889C20.6997 9.16436 20.609 8.94465 20.4442 8.77997L19.9197 8.25574C19.7551 8.0908 19.5352 8 19.3008 8C19.0664 8 18.8467 8.0908 18.682 8.25574L11.5552 15.3824C11.3899 15.5476 11.2993 15.7683 11.3 16.003C11.2993 16.2387 11.3897 16.4592 11.5552 16.6245L18.6753 23.7443C18.84 23.9092 19.0597 24 19.2943 24C19.5287 24 19.7484 23.9092 19.9132 23.7443L20.4376 23.22C20.7788 22.8788 20.7788 22.3234 20.4376 21.9823L14.4586 16.0034Z" fill="white"/>
</svg>
