<svg width="32" height="32" viewBox="0 0 32 32" fill="none" xmlns="http://www.w3.org/2000/svg">
<circle cx="16" cy="16" r="16" fill="#0085FF"/>
<path d="M17.5414 15.9966L11.5559 21.9824C11.3911 22.1469 11.3004 22.3667 11.3004 22.6011C11.3004 22.8356 11.3911 23.0553 11.5559 23.22L12.0804 23.7443C12.2449 23.9092 12.4649 24 12.6993 24C12.9337 24 13.1534 23.9092 13.3181 23.7443L20.4449 16.6176C20.6102 16.4524 20.7007 16.2317 20.7001 15.997C20.7007 15.7613 20.6103 15.5408 20.4449 15.3755L13.3247 8.25574C13.16 8.0908 12.9403 8 12.7058 8C12.4714 8 12.2517 8.0908 12.0869 8.25574L11.5625 8.77997C11.2213 9.12117 11.2213 9.67662 11.5625 10.0177L17.5414 15.9966Z" fill="white"/>
</svg>
