<svg width="40" height="40" viewBox="0 0 40 40" fill="none" xmlns="http://www.w3.org/2000/svg">
<path d="M2.86874 37.1312C2.98483 37.2474 3.12269 37.3396 3.27444 37.4025C3.42619 37.4654 3.58885 37.4978 3.75311 37.4978C3.91738 37.4978 4.08004 37.4654 4.23179 37.4025C4.38354 37.3396 4.5214 37.2474 4.63749 37.1312L20 21.7687L35.3687 37.1312C35.6033 37.3657 35.9214 37.4975 36.2531 37.4975C36.5848 37.4975 36.9029 37.3657 37.1375 37.1312C37.372 36.8966 37.5038 36.5785 37.5038 36.2468C37.5038 35.9151 37.372 35.597 37.1375 35.3624L21.7687 19.9999L37.1312 4.63116C37.3658 4.39661 37.4976 4.07849 37.4976 3.74679C37.4976 3.41508 37.3658 3.09696 37.1312 2.86241C36.8967 2.62786 36.5786 2.49609 36.2469 2.49609C35.9152 2.49609 35.597 2.62786 35.3625 2.86241L20 18.2312L4.63124 2.86866C4.39211 2.66388 4.08452 2.55687 3.76992 2.56902C3.45533 2.58118 3.1569 2.71159 2.93429 2.93421C2.71167 3.15683 2.58125 3.45525 2.5691 3.76985C2.55695 4.08444 2.66396 4.39204 2.86874 4.63116L18.2312 19.9999L2.86874 35.3687C2.63593 35.6029 2.50525 35.9197 2.50525 36.2499C2.50525 36.5801 2.63593 36.897 2.86874 37.1312Z" fill="white"/>
</svg>
