<svg width="24" height="24" viewBox="0 0 24 24" fill="none" xmlns="http://www.w3.org/2000/svg">
<g clip-path="url(#clip0)">
<path d="M6 1.5V0H0.75C0.335766 0 0 0.335766 0 0.75V6H1.5V2.5575L8.4675 9.525L9.525 8.4675L2.5575 1.5H6Z" fill="white"/>
<path d="M23.2502 0H18.0002V1.5H21.4427L14.4752 8.4675L15.5327 9.525L22.5002 2.5575V6H24.0002V0.75C24.0002 0.335766 23.6644 0 23.2502 0Z" fill="white"/>
<path d="M22.5002 21.4427L15.5327 14.4752L14.4752 15.5327L21.4427 22.5002H18.0002V24.0002H23.2502C23.6644 24.0002 24.0002 23.6644 24.0002 23.2502V18.0002H22.5002V21.4427Z" fill="white"/>
<path d="M8.4675 14.4675L1.5 21.4425V18H0V23.25C0 23.6643 0.335766 24 0.75 24H6V22.5H2.5575L9.525 15.5325L8.4675 14.4675Z" fill="white"/>
</g>
<defs>
<clipPath id="clip0">
<rect width="24" height="24" fill="white"/>
</clipPath>
</defs>
</svg>
