<svg width="40" height="40" viewBox="0 0 40 40" fill="none" xmlns="http://www.w3.org/2000/svg">
<g clip-path="url(#clip0)">
<path d="M38.7492 17.4989C38.0592 17.4989 37.4992 18.0589 37.4992 18.7489V32.903L27.4999 36.9027V23.7485C27.4999 23.0586 26.9399 22.4986 26.2499 22.4986C25.56 22.4986 25 23.0586 25 23.7485V36.9002L15.0007 32.9005V13.0967L20.7928 15.4141C21.4252 15.669 22.1602 15.3591 22.4177 14.7166C22.6752 14.0766 22.3627 13.3492 21.7202 13.0917L14.2382 10.0969C14.2382 10.0969 14.2382 10.0969 14.2357 10.0969L14.2157 10.0894C13.9182 9.96939 13.5857 9.96939 13.2883 10.0894L13.2658 10.0969C13.2658 10.0969 13.2658 10.0969 13.2633 10.0969L0.786538 15.0891C0.314067 15.2791 0.00158691 15.7365 0.00158691 16.249V38.7476C0.00158691 39.1626 0.209074 39.5501 0.551553 39.7826C0.761539 39.925 1.00402 39.9975 1.25151 39.9975C1.409 39.9975 1.56649 39.9675 1.71648 39.9075L13.7507 35.0953L25.7625 39.9001C25.7625 39.9001 25.7625 39.9001 25.765 39.9001L25.7875 39.91C26.085 40.03 26.4174 40.03 26.7149 39.91L26.7374 39.9001C26.7374 39.9001 26.7374 39.9001 26.7399 39.9001L39.2166 34.9104C39.6866 34.7179 39.9991 34.2604 39.9991 33.7479V18.7489C39.9991 18.0589 39.4391 17.4989 38.7492 17.4989ZM12.5008 32.9005L2.50143 36.9002V17.094L12.5008 13.0942V32.9005Z" fill="white"/>
<path d="M31.2496 4.99969C29.1823 4.99969 27.4999 6.68209 27.4999 8.74946C27.4999 10.8168 29.1823 12.4992 31.2496 12.4992C33.317 12.4992 34.9994 10.8168 34.9994 8.74946C34.9994 6.68209 33.317 4.99969 31.2496 4.99969ZM31.2496 9.99938C30.5597 9.99938 29.9997 9.43942 29.9997 8.74946C29.9997 8.0595 30.5597 7.49954 31.2496 7.49954C31.9396 7.49954 32.4996 8.0595 32.4996 8.74946C32.4996 9.43942 31.9396 9.99938 31.2496 9.99938Z" fill="white"/>
<path d="M31.2496 0C26.4249 0 22.5002 3.92476 22.5002 8.74945C22.5002 13.2392 29.5197 21.1912 30.3197 22.0836C30.5572 22.3461 30.8947 22.4986 31.2496 22.4986C31.6046 22.4986 31.9421 22.3461 32.1796 22.0836C32.9795 21.1912 39.9991 13.2392 39.9991 8.74945C39.9991 3.92476 36.0743 0 31.2496 0ZM31.2496 19.3413C28.5198 16.104 25 11.1343 25 8.74945C25 5.30467 27.8049 2.49984 31.2496 2.49984C34.6944 2.49984 37.4992 5.30467 37.4992 8.74945C37.4992 11.1318 33.9795 16.104 31.2496 19.3413Z" fill="white"/>
</g>
<defs>
<clipPath id="clip0">
<rect width="40" height="40" rx="5" fill="white"/>
</clipPath>
</defs>
</svg>
