<svg width="24" height="24" viewBox="0 0 24 24" fill="none" xmlns="http://www.w3.org/2000/svg">
<path d="M18 12.75V15.75H12.75V12.75H18ZM22.5 6V18C22.5 18.5967 22.2629 19.169 21.841 19.591C21.419 20.0129 20.8467 20.25 20.25 20.25H3.75C3.15326 20.25 2.58097 20.0129 2.15901 19.591C1.73705 19.169 1.5 18.5967 1.5 18V6C1.5 5.40326 1.73705 4.83097 2.15901 4.40901C2.58097 3.98705 3.15326 3.75 3.75 3.75H20.25C20.8467 3.75 21.419 3.98705 21.841 4.40901C22.2629 4.83097 22.5 5.40326 22.5 6ZM19.5 12.75C19.5 12.3522 19.342 11.9706 19.0607 11.6893C18.7794 11.408 18.3978 11.25 18 11.25H12.75C12.3522 11.25 11.9706 11.408 11.6893 11.6893C11.408 11.9706 11.25 12.3522 11.25 12.75V15.75C11.25 16.1478 11.408 16.5294 11.6893 16.8107C11.9706 17.092 12.3522 17.25 12.75 17.25H18C18.3978 17.25 18.7794 17.092 19.0607 16.8107C19.342 16.5294 19.5 16.1478 19.5 15.75V12.75Z" fill="white"/>
</svg>
