<svg width="24" height="24" viewBox="0 0 24 24" fill="none" xmlns="http://www.w3.org/2000/svg">
<g clip-path="url(#clip0)">
<path d="M2.18608 16.8421H3.69436L12.4743 22.4294C13.4929 23.0771 14.3187 22.624 14.3187 21.4166V15.6944C15.715 14.9644 16.6688 13.5045 16.6688 11.8204C16.6688 10.1362 15.715 8.67643 14.3187 7.94612V2.60931C14.3187 1.40224 13.4793 0.927125 12.4444 1.54785L3.69436 6.79792H2.18608C0.978424 6.79792 0 7.77651 0 8.98399V14.6561C0 15.8635 0.978424 16.8421 2.18608 16.8421Z" fill="white"/>
<path d="M18.1234 12.6074C18.0559 13.5297 17.7904 14.4015 17.3344 15.1987C17.0346 15.7226 17.2165 16.3903 17.74 16.6901C17.9116 16.7879 18.0978 16.8344 18.2822 16.8344C18.6614 16.8344 19.0294 16.6371 19.2319 16.284C19.8509 15.2007 20.2122 14.0172 20.3026 12.7662C20.444 10.837 19.9039 8.90885 18.7809 7.3369C18.43 6.84546 17.7472 6.73234 17.2562 7.08286C16.7648 7.43404 16.6512 8.11611 17.0022 8.60755C17.8288 9.76482 18.2276 11.1854 18.1234 12.6074Z" fill="white"/>
<path d="M23.9697 13.0279C24.2452 9.25672 22.6086 5.64052 19.5916 3.35435C19.11 2.98882 18.4252 3.08471 18.0605 3.5651C17.6954 4.04648 17.7898 4.73194 18.2715 5.09615C20.6957 6.93335 22.0112 9.83911 21.7897 12.8678C21.6231 15.1466 20.6044 17.2511 18.9213 18.7937C18.4764 19.2018 18.4465 19.8936 18.8547 20.338C19.0698 20.5733 19.3649 20.6924 19.6603 20.6924C19.9237 20.6924 20.1889 20.5972 20.3986 20.4051C22.4942 18.4845 23.7623 15.8651 23.9697 13.0279Z" fill="white"/>
</g>
<defs>
<clipPath id="clip0">
<rect width="23.9999" height="24" fill="white"/>
</clipPath>
</defs>
</svg>
