<svg width="80" height="80" viewBox="0 0 80 80" fill="none" xmlns="http://www.w3.org/2000/svg">
<path d="M29.79 0H18.1655C15.5633 0 13.4531 2.11027 13.4531 4.71241V75.2873C13.4531 77.8896 15.5633 80 18.1655 80H29.79C32.3922 80 34.5025 77.8897 34.5025 75.2873V4.71241C34.5026 2.11027 32.3923 0 29.79 0Z" fill="white"/>
<path d="M61.8344 0H50.2098C47.6079 0 45.4974 2.11027 45.4974 4.71241V75.2873C45.4974 77.8896 47.6077 80 50.2098 80H61.8344C64.4364 80 66.5468 77.8897 66.5468 75.2873V4.71241C66.5468 2.11027 64.4366 0 61.8344 0Z" fill="white"/>
</svg>
