<svg width="24" height="24" viewBox="0 0 24 24" fill="none" xmlns="http://www.w3.org/2000/svg">
<path d="M23.2802 14.6299L21.0742 12.905C21.1426 12.3029 21.1426 11.695 21.0742 11.093L23.2822 9.36698C23.696 9.03375 23.8065 8.44941 23.5432 7.98797L21.2482 4.021C20.9839 3.55666 20.4209 3.35388 19.9212 3.54302L17.3212 4.58903C16.8326 4.23457 16.3093 3.93068 15.7592 3.68205L15.3602 0.920048C15.2883 0.3898 14.8333 -0.00432355 14.2982 3.58112e-05H9.69825C9.16758 -0.00315168 8.71631 0.386566 8.64225 0.912032L8.24227 3.68201C7.69388 3.93302 7.17137 4.23714 6.68228 4.59002L4.07524 3.54199C3.58071 3.34704 3.01826 3.54738 2.75824 4.01097L0.461237 7.98497C0.190816 8.44716 0.302144 9.03792 0.722236 9.36998L2.92821 11.095C2.85917 11.697 2.85917 12.305 2.92821 12.907L0.72022 14.632C0.305753 14.9647 0.19466 15.5494 0.458237 16.011L2.75224 19.979C3.01624 20.4436 3.57954 20.6466 4.07922 20.457L6.67923 19.4109C7.16823 19.7656 7.69191 20.0698 8.24222 20.319L8.64221 23.0789C8.71261 23.6078 9.16472 24.0021 9.6982 23.9999H14.2982C14.8298 24.0042 15.2825 23.6143 15.3572 23.0879L15.7571 20.318C16.3055 20.0669 16.828 19.7627 17.3171 19.41L19.9271 20.459C20.4217 20.6535 20.9838 20.4533 21.2441 19.99L23.5481 16C23.8061 15.5392 23.6927 14.9596 23.2802 14.6299ZM11.9982 16.9999C9.23681 16.9999 6.99821 14.7614 6.99821 11.9999C6.99821 9.2385 9.23676 6.99995 11.9982 6.99995C14.7597 6.99995 16.9982 9.2385 16.9982 11.9999C16.9949 14.76 14.7582 16.9967 11.9982 16.9999Z" fill="white"/>
</svg>
