<svg width="24" height="24" viewBox="0 0 24 24" fill="none" xmlns="http://www.w3.org/2000/svg">
<path d="M17.2996 9.76705L3.95693 0.589428C3.40868 0.211491 2.83847 0.0120239 2.3503 0.0120239C1.27851 0.0120239 0.567932 0.910986 0.567932 2.35761V21.6548C0.567932 22.3615 0.773426 22.9519 1.07807 23.3629C1.38738 23.7795 1.87127 24 2.39405 24C2.88202 24 3.42968 23.8001 3.97773 23.4228L17.3084 14.2451C18.1654 13.6545 18.6352 12.8596 18.6351 12.0057C18.6351 11.1522 18.1578 10.3573 17.2996 9.76705Z" fill="white"/>
<path d="M22.1849 23.994L22.1706 23.9938C22.1683 23.9938 22.166 23.994 22.1637 23.994H22.1849Z" fill="white"/>
<path d="M22.1455 0L21.5939 0.0015553C20.8717 0.0015553 20.2465 0.590236 20.2465 1.31345V22.6681C20.2465 23.3921 20.8614 23.9864 21.5846 23.9864L22.1705 23.9938C22.8901 23.9899 23.4321 23.3905 23.4321 22.6692V1.31209C23.4321 0.588875 22.8683 0 22.1455 0Z" fill="white"/>
</svg>
