<svg width="40" height="40" viewBox="0 0 40 40" fill="none" xmlns="http://www.w3.org/2000/svg">
<g clip-path="url(#clip0)">
<path d="M26.3929 26.6325C26.8505 27.0902 27.5925 27.0902 28.0501 26.6325L33.0248 21.6578L37.9995 26.6325C38.4571 27.0901 39.1991 27.0902 39.6568 26.6325C40.1145 26.1749 40.1145 25.4329 39.6568 24.9752L34.682 20.0006L39.6567 15.026C40.1144 14.5683 40.1144 13.8263 39.6567 13.3687C39.1991 12.911 38.4571 12.911 37.9995 13.3687L33.0248 18.3434L28.0501 13.3687C27.5924 12.911 26.8504 12.911 26.3928 13.3687C25.9351 13.8263 25.9351 14.5683 26.3928 15.026L31.3675 20.0006L26.3928 24.9753C25.9352 25.433 25.9352 26.1749 26.3929 26.6325Z" fill="white"/>
<path d="M1.17188 11.44H5.85938V28.5603H1.17188C0.525 28.5603 0 28.0361 0 27.3884V12.6119C0 11.9642 0.525 11.44 1.17188 11.44Z" fill="white"/>
<path d="M23.7352 6.1402V33.8605C23.7352 35.5457 21.9289 36.6136 20.4531 35.8004L8.20312 29.0566V10.9441L20.4531 4.20036C21.9297 3.38708 23.7352 4.45583 23.7352 6.1402Z" fill="white"/>
</g>
<defs>
<clipPath id="clip0">
<rect width="40" height="40" rx="5" fill="white"/>
</clipPath>
</defs>
</svg>
