<svg width="24" height="24" viewBox="0 0 24 24" fill="none" xmlns="http://www.w3.org/2000/svg">
<path d="M22.9999 0H1.0002C0.447178 0 0.000183105 0.447979 0.000183105 0.999973V16.9998C0.000183105 17.5518 0.447178 17.9998 1.0002 17.9998H6.00016C6.55314 17.9998 7.00013 17.5518 7.00013 16.9998C7.00013 16.4478 6.55314 15.9998 6.00016 15.9998H2.00018V1.99999H22V15.9998H18C17.447 15.9998 17 16.4478 17 16.9998C17 17.5518 17.447 17.9998 18 17.9998H22.9999C23.5529 17.9998 23.9999 17.5518 23.9999 16.9998V0.999973C23.9999 0.447979 23.5529 0 22.9999 0Z" fill="white"/>
<path d="M12.8321 13.445C12.4611 12.888 11.5392 12.888 11.1681 13.445L5.16822 22.4449C4.96422 22.7519 4.9442 23.1459 5.1182 23.4709C5.2922 23.7969 5.63119 23.9999 6.00019 23.9999H18C18.369 23.9999 18.708 23.7969 18.882 23.4709C19.056 23.1459 19.036 22.7519 18.832 22.4449L12.8321 13.445Z" fill="white"/>
</svg>
